<svg width="38" height="28" viewBox="0 0 38 28" fill="none" xmlns="http://www.w3.org/2000/svg">
<g clip-path="url(#clip0_3_8)">
<path d="M37.8859 13.9814H35.518C35.518 12.9229 35.3207 11.9031 34.926 10.9221C34.5314 9.94104 33.9764 9.02024 33.2611 8.15967C32.5458 7.2991 31.6764 6.51599 30.6528 5.81032C29.6292 5.10466 28.5131 4.50226 27.3045 4.00313C26.0959 3.504 24.7763 3.11244 23.3457 2.82845C21.9151 2.54447 20.4475 2.40678 18.9429 2.41538C17.4137 2.41538 15.9461 2.55307 14.5402 2.82845C13.1343 3.10384 11.8208 3.49109 10.5999 3.99022C9.37897 4.48935 8.2567 5.09605 7.23309 5.81032C6.20948 6.52459 5.3462 7.30341 4.64324 8.14676C3.94028 8.99012 3.37914 9.91092 2.95983 10.9092C2.54052 11.9074 2.3432 12.9315 2.36787 13.9814C2.36787 15.0485 2.56519 16.0726 2.95983 17.0536C3.35448 18.0347 3.90945 18.9512 4.62474 19.8031C5.34003 20.6551 6.20948 21.4382 7.23309 22.1525C8.2567 22.8668 9.3728 23.4692 10.5814 23.9597C11.79 24.4502 13.1096 24.8418 14.5402 25.1344C15.9708 25.427 17.4383 25.5646 18.9429 25.5474V27.1997C17.1917 27.1997 15.5145 27.0448 13.9112 26.735C12.308 26.4252 10.7972 25.982 9.37897 25.4054C7.96072 24.8289 6.68429 24.1404 5.54969 23.3401C4.41508 22.5398 3.42847 21.6448 2.58985 20.6551C1.75123 19.6655 1.1161 18.6113 0.684461 17.4925C0.252819 16.3738 0.0246653 15.2034 0 13.9814C0 12.768 0.221987 11.5976 0.665962 10.4703C1.10994 9.34295 1.74507 8.28875 2.57135 7.30771C3.39764 6.32666 4.38425 5.43597 5.53119 4.63565C6.67812 3.83532 7.96072 3.14686 9.37897 2.57028C10.7972 1.9937 12.308 1.55051 13.9112 1.24071C15.5145 0.930903 17.1917 0.771698 18.9429 0.763092C20.6818 0.763092 22.3591 0.917994 23.9746 1.2278C25.5902 1.5376 27.101 1.9808 28.5069 2.55738C29.9128 3.13396 31.1892 3.82241 32.3362 4.62274C33.4831 5.42307 34.4697 6.31806 35.296 7.30771C36.1223 8.29736 36.7574 9.35156 37.2014 10.4703C37.6454 11.589 37.8735 12.7594 37.8859 13.9814ZM18.9429 5.71996C20.5832 5.71996 22.1186 5.9351 23.5492 6.36539C24.9798 6.79567 26.2377 7.38516 27.323 8.13385C28.4082 8.88255 29.253 9.75602 29.8573 10.7543C30.4616 11.7525 30.7699 12.8282 30.7823 13.9814H28.4144C28.4144 13.0692 28.1677 12.2129 27.6744 11.4126C27.1811 10.6123 26.5028 9.91523 25.6396 9.32144C24.7763 8.72764 23.7712 8.25433 22.6242 7.9015C21.4773 7.54867 20.2502 7.37225 18.9429 7.37225C17.6357 7.37225 16.4086 7.54436 15.2616 7.88859C14.1147 8.23282 13.1158 8.70613 12.2648 9.30853C11.4139 9.91092 10.7356 10.6123 10.2299 11.4126C9.72428 12.2129 9.47147 13.0692 9.47147 13.9814C9.47147 14.8678 9.70579 15.7111 10.1744 16.5115C10.6431 17.3118 11.3337 18.0261 12.2463 18.6543L10.5629 19.829C9.44063 19.0458 8.58352 18.1509 7.99155 17.144C7.39958 16.1371 7.1036 15.0829 7.1036 13.9814C7.1036 12.8369 7.41191 11.7654 8.02855 10.7672C8.64518 9.76893 9.48996 8.89115 10.5629 8.13385C11.6358 7.37655 12.8876 6.78706 14.3182 6.36539C15.7488 5.94371 17.2904 5.72857 18.9429 5.71996ZM18.9429 10.6768C19.5966 10.6768 20.207 10.7629 20.7743 10.935C21.3416 11.1071 21.8473 11.3438 22.2912 11.645C22.7352 11.9462 23.0744 12.2947 23.3087 12.6906C23.543 13.0864 23.6663 13.5167 23.6787 13.9814C23.6787 14.4375 23.5553 14.8635 23.3087 15.2594C23.062 15.6552 22.7229 16.008 22.2912 16.3178C21.8596 16.6277 21.3601 16.8643 20.7928 17.0278C20.2255 17.1913 19.6089 17.2774 18.9429 17.286C18.2893 17.286 17.6788 17.1999 17.1115 17.0278C16.5442 16.8557 16.0386 16.619 15.5946 16.3178C15.1506 16.0167 14.8115 15.6681 14.5772 15.2723C14.3429 14.8764 14.2195 14.4461 14.2072 13.9814C14.2072 13.5253 14.3305 13.0993 14.5772 12.7035C14.8238 12.3076 15.163 11.9548 15.5946 11.645C16.0263 11.3352 16.5257 11.0985 17.093 10.935C17.6603 10.7715 18.277 10.6854 18.9429 10.6768ZM18.9429 15.6337C19.2759 15.6337 19.5842 15.5907 19.8679 15.5046C20.1515 15.4186 20.3982 15.3024 20.6078 15.1561C20.8175 15.0098 20.9901 14.8334 21.1258 14.6268C21.2615 14.4203 21.3231 14.2052 21.3108 13.9814C21.3108 13.7491 21.2491 13.5339 21.1258 13.336C21.0025 13.1381 20.836 12.9659 20.6263 12.8196C20.4167 12.6733 20.1639 12.5529 19.8679 12.4582C19.5719 12.3635 19.2636 12.3205 18.9429 12.3291C18.6099 12.3291 18.3016 12.3721 18.018 12.4582C17.7343 12.5443 17.4877 12.6604 17.278 12.8067C17.0684 12.953 16.8957 13.1294 16.7601 13.336C16.6244 13.5425 16.5627 13.7577 16.5751 13.9814C16.5751 14.2138 16.6367 14.4289 16.7601 14.6268C16.8834 14.8248 17.0499 14.9969 17.2595 15.1432C17.4692 15.2895 17.722 15.41 18.018 15.5046C18.314 15.5993 18.6223 15.6423 18.9429 15.6337Z" fill="#A4A4A4"/>
</g>
<defs>
<clipPath id="clip0_3_8">
<rect width="37.8859" height="26.4366" fill="white" transform="translate(0 0.763092)"/>
</clipPath>
</defs>
</svg>
