<svg width="42" height="31" viewBox="0 0 42 31" fill="none" xmlns="http://www.w3.org/2000/svg">
<path d="M37.518 9.13533H4.36787C3.73987 9.13533 3.13759 9.27459 2.69353 9.52249C2.24947 9.77038 2 10.1066 2 10.4572V27.641C2 27.9915 2.24947 28.3278 2.69353 28.5757C3.13759 28.8235 3.73987 28.9628 4.36787 28.9628H37.518C38.146 28.9628 38.7483 28.8235 39.1923 28.5757C39.6364 28.3278 39.8859 27.9915 39.8859 27.641V10.4572C39.8859 10.1066 39.6364 9.77038 39.1923 9.52249C38.7483 9.27459 38.146 9.13533 37.518 9.13533Z" stroke="#A4A4A4" stroke-width="3.57037" stroke-linecap="round" stroke-linejoin="round"/>
<path d="M12.6554 11.779V7.15258C12.6554 6.54503 12.8698 5.94343 13.2862 5.38213C13.7027 4.82083 14.3132 4.31082 15.0828 3.88121C15.8523 3.45161 16.7659 3.11083 17.7714 2.87833C18.7769 2.64583 19.8546 2.52617 20.9429 2.52617C22.0313 2.52617 23.1089 2.64583 24.1144 2.87833C25.1199 3.11083 26.0335 3.45161 26.8031 3.88121C27.5727 4.31082 28.1831 4.82083 28.5996 5.38213C29.0161 5.94343 29.2305 6.54503 29.2305 7.15258V11.779" stroke="#A4A4A4" stroke-width="3.57037" stroke-linecap="round" stroke-linejoin="round"/>
</svg>
