<svg width="38" height="32" viewBox="0 0 38 32" fill="none" xmlns="http://www.w3.org/2000/svg">
<path d="M20.7709 15.2644L25.9636 19.4794C26.3444 19.7885 26.5348 20.1819 26.5348 20.6596C26.5348 21.1373 26.3444 21.5307 25.9636 21.8398C25.5828 22.1489 25.0981 22.3035 24.5096 22.3035C23.9211 22.3035 23.4365 22.1489 23.0557 21.8398L17.2398 17.119C17.0321 16.9504 16.8763 16.761 16.7725 16.5508C16.6686 16.3406 16.6167 16.1226 16.6167 15.8966V9.19476C16.6167 8.71706 16.8161 8.31635 17.2149 7.99264C17.6137 7.66892 18.1067 7.50763 18.6938 7.50875C19.2823 7.50875 19.7759 7.67061 20.1747 7.99432C20.5735 8.31804 20.7723 8.71818 20.7709 9.19476V15.2644ZM18.6938 31.1129C14.505 31.1129 10.7489 30.108 7.42559 28.0983C4.10225 26.0886 1.86938 23.4685 0.726987 20.2381C0.553897 19.7323 0.614825 19.2546 0.909771 18.805C1.20472 18.3554 1.66306 18.0744 2.2848 17.962C2.87331 17.8496 3.40158 17.9553 3.86962 18.279C4.33766 18.6027 4.65753 19.0028 4.82923 19.4794C5.7293 21.9522 7.46921 23.9473 10.049 25.4647C12.6287 26.9821 15.5103 27.7408 18.6938 27.7408C22.7441 27.7408 26.1803 26.5955 29.0024 24.3048C31.8244 22.014 33.2348 19.2254 33.2334 15.9388C33.2334 12.6511 31.8224 9.86186 29.0003 7.57114C26.1782 5.28041 22.7427 4.13562 18.6938 4.13674C16.3051 4.13674 14.0723 4.58634 11.9952 5.48555C9.91809 6.38475 8.16988 7.62115 6.75054 9.19476H10.3854C10.9739 9.19476 11.4676 9.35662 11.8664 9.68033C12.2652 10.004 12.4639 10.4042 12.4625 10.8808C12.4625 11.3585 12.2631 11.7592 11.8643 12.0829C11.4655 12.4066 10.9726 12.5679 10.3854 12.5668H2.07709C1.48859 12.5668 0.994931 12.4049 0.596131 12.0812C0.19733 11.7575 -0.00137754 11.3573 7.18715e-06 10.8808V4.13674C7.18715e-06 3.65904 0.199408 3.25833 0.598208 2.93462C0.997009 2.6109 1.48997 2.44961 2.07709 2.45073C2.6656 2.45073 3.15926 2.61259 3.55806 2.9363C3.95686 3.26002 4.15557 3.66016 4.15418 4.13674V6.41285C5.9197 4.61444 8.07503 3.22349 10.6201 2.23998C13.1653 1.25648 15.8565 0.764725 18.6938 0.764725C21.2901 0.764725 23.7224 1.16543 25.9906 1.96685C28.2588 2.76826 30.232 3.84956 31.9103 5.21073C33.5886 6.57414 34.9214 8.17585 35.9087 10.0158C36.896 11.8558 37.3889 13.8302 37.3876 15.9388C37.3876 18.0463 36.8939 20.0206 35.9066 21.8617C34.9193 23.7029 33.5872 25.3046 31.9103 26.6669C30.2306 28.0291 28.2574 29.111 25.9906 29.9124C23.7238 30.7138 21.2915 31.114 18.6938 31.1129Z" fill="#A4A4A4"/>
</svg>
