<svg width="38" height="32" viewBox="0 0 38 32" fill="none" xmlns="http://www.w3.org/2000/svg">
<path d="M11.2163 21.9899H33.6488V3.78104H29.9101V14.4029L25.2366 12.1268L20.5632 14.4029V3.78104H11.2163V21.9899ZM11.2163 25.0247C10.1881 25.0247 9.30764 24.7273 8.57484 24.1325C7.84204 23.5377 7.47627 22.8235 7.47752 21.9899V3.78104C7.47752 2.94647 7.84391 2.23177 8.57671 1.63694C9.30951 1.04212 10.1894 0.745214 11.2163 0.746226H33.6488C34.677 0.746226 35.5574 1.04364 36.2902 1.63846C37.023 2.23328 37.3888 2.94748 37.3876 3.78104V21.9899C37.3876 22.8245 37.0212 23.5392 36.2884 24.134C35.5556 24.7288 34.6757 25.0257 33.6488 25.0247H11.2163ZM3.73876 31.0944C2.7106 31.0944 1.83012 30.7969 1.09733 30.2021C0.364532 29.6073 -0.00124308 28.8931 3.17382e-06 28.0595V6.81585H3.73876V28.0595H29.9101V31.0944H3.73876Z" fill="#A4A4A4"/>
</svg>
