<svg width="38" height="33" viewBox="0 0 38 33" fill="none" xmlns="http://www.w3.org/2000/svg">
<path d="M18.6936 10.2484C20.732 10.2484 22.6868 10.9057 24.1281 12.0757C25.5695 13.2456 26.3792 14.8324 26.3792 16.487C26.3792 18.1416 25.5695 19.7284 24.1281 20.8983C22.6868 22.0683 20.732 22.7255 18.6936 22.7255C16.6552 22.7255 14.7004 22.0683 13.2591 20.8983C11.8177 19.7284 11.008 18.1416 11.008 16.487C11.008 14.8324 11.8177 13.2456 13.2591 12.0757C14.7004 10.9057 16.6552 10.2484 18.6936 10.2484ZM18.6936 13.3677C17.6744 13.3677 16.697 13.6964 15.9763 14.2813C15.2557 14.8663 14.8508 15.6597 14.8508 16.487C14.8508 17.3143 15.2557 18.1077 15.9763 18.6926C16.697 19.2776 17.6744 19.6063 18.6936 19.6063C19.7128 19.6063 20.6902 19.2776 21.4109 18.6926C22.1315 18.1077 22.5364 17.3143 22.5364 16.487C22.5364 15.6597 22.1315 14.8663 21.4109 14.2813C20.6902 13.6964 19.7128 13.3677 18.6936 13.3677ZM14.8508 32.0833C14.3704 32.0833 13.9669 31.8026 13.8901 31.4283L13.1792 27.2953C11.9687 26.9054 10.9311 26.3751 9.932 25.7512L5.14771 27.3265C4.725 27.4512 4.20622 27.3265 3.97565 26.9833L0.132847 21.587C0.0152486 21.4263 -0.0262092 21.2363 0.0162266 21.0526C0.0586624 20.8689 0.182086 20.704 0.363416 20.5888L4.41758 17.9998L4.28308 16.487L4.41758 14.9274L0.363416 12.3851C0.182086 12.2699 0.0586624 12.1051 0.0162266 11.9214C-0.0262092 11.7376 0.0152486 11.5477 0.132847 11.387L3.97565 5.99064C4.20622 5.64752 4.725 5.50715 5.14771 5.64752L9.932 7.20715C10.9311 6.59889 11.9687 6.06862 13.1792 5.67871L13.8901 1.54567C13.9669 1.17136 14.3704 0.890625 14.8508 0.890625H22.5364C23.0168 0.890625 23.4203 1.17136 23.4971 1.54567L24.208 5.67871C25.4185 6.06862 26.4561 6.59889 27.4552 7.20715L32.2395 5.64752C32.6622 5.50715 33.181 5.64752 33.4115 5.99064L37.2544 11.387C37.5041 11.7301 37.3889 12.1512 37.0238 12.3851L32.9696 14.9274L33.1041 16.487L32.9696 18.0466L37.0238 20.5888C37.3889 20.8228 37.5041 21.2439 37.2544 21.587L33.4115 26.9833C33.181 27.3265 32.6622 27.4668 32.2395 27.3265L27.4552 25.7668C26.4561 26.3751 25.4185 26.9054 24.208 27.2953L23.4971 31.4283C23.4203 31.8026 23.0168 32.0833 22.5364 32.0833H14.8508ZM17.2525 4.0099L16.5416 8.08055C14.2359 8.47046 12.1993 9.46862 10.7198 10.8567L6.0892 9.23468L4.64814 11.2622L8.70231 13.6796C7.93374 15.4992 7.93374 17.4748 8.70231 19.2943L4.62893 21.7274L6.06998 23.7549L10.739 22.1329C12.2185 23.5054 14.2359 24.5035 16.5224 24.8778L17.2333 28.9641H20.1539L20.8648 24.8934C23.1513 24.5035 25.1687 23.5054 26.6482 22.1329L31.3172 23.7549L32.7583 21.7274L28.6849 19.3099C29.4535 17.4852 29.4535 15.5044 28.6849 13.6796L32.7391 11.2622L31.298 9.23468L26.6674 10.8567C25.1576 9.43794 23.1096 8.46683 20.8456 8.09614L20.1347 4.0099H17.2525Z" fill="#A4A4A4"/>
</svg>
