<svg width="21" height="19" viewBox="0 0 21 19" fill="none" xmlns="http://www.w3.org/2000/svg">
<path d="M18.3525 9.84579H8.64321M16.3084 12.788L19.3745 9.84579L16.3084 6.90362M11.1983 4.94217V3.96145C11.1983 3.44124 10.9829 2.94234 10.5996 2.57449C10.2163 2.20665 9.69634 2 9.15422 2H4.04406C3.50194 2 2.98203 2.20665 2.59869 2.57449C2.21536 2.94234 2 3.44124 2 3.96145V15.7301C2 16.2503 2.21536 16.7493 2.59869 17.1171C2.98203 17.4849 3.50194 17.6916 4.04406 17.6916H9.15422C9.69634 17.6916 10.2163 17.4849 10.5996 17.1171C10.9829 16.7493 11.1983 16.2503 11.1983 15.7301V14.7494" stroke="#E7C6F0" stroke-width="2.18023" stroke-linecap="round" stroke-linejoin="round"/>
</svg>
