<svg width="38" height="27" viewBox="0 0 38 27" fill="none" xmlns="http://www.w3.org/2000/svg">
<path d="M2.91996e-06 5.06253C2.91996e-06 3.79657 0.720696 2.58247 2.00354 1.68731C3.28638 0.792143 5.02629 0.289246 6.8405 0.289246H31.0454C32.8596 0.289246 34.5995 0.792143 35.8823 1.68731C37.1652 2.58247 37.8859 3.79657 37.8859 5.06253V21.9526C37.8859 23.2185 37.1652 24.4327 35.8823 25.3278C34.5995 26.223 32.8596 26.7259 31.0454 26.7259H23.6029C24.4574 26.0914 25.1415 25.3453 25.6087 24.5228H31.0454C32.0222 24.5228 32.9591 24.252 33.6499 23.77C34.3406 23.288 34.7287 22.6343 34.7287 21.9526V5.06253C34.7287 4.38086 34.3406 3.72711 33.6499 3.2451C32.9591 2.76309 32.0222 2.4923 31.0454 2.4923H6.8405C5.86362 2.4923 4.92675 2.76309 4.23599 3.2451C3.54522 3.72711 3.15716 4.38086 3.15716 5.06253V8.85618C1.98802 9.18008 0.91692 9.65494 2.91996e-06 10.2559V5.06253ZM22.079 24.5228C21.4607 25.1988 20.6081 25.755 19.6001 26.1401C18.5921 26.5251 17.4612 26.7266 16.312 26.7259H6.8405C5.02629 26.7259 3.28638 26.223 2.00354 25.3278C0.720696 24.4327 2.91996e-06 23.2185 2.91996e-06 21.9526V15.3434C-0.000827653 14.7164 0.17554 14.0955 0.519013 13.5161C0.862487 12.9367 1.36632 12.4103 2.00169 11.9669C2.63705 11.5236 3.39147 11.172 4.22178 10.9323C5.05208 10.6926 5.94196 10.5696 6.8405 10.5702H16.312C17.2103 10.5702 18.0998 10.6936 18.9297 10.9335C19.7596 11.1734 20.5137 11.525 21.1489 11.9682C21.7841 12.4115 22.288 12.9377 22.6318 13.5168C22.9755 14.0959 23.1525 14.7166 23.1525 15.3434V21.9526C23.1525 22.8984 22.7568 23.7811 22.079 24.5228ZM3.15716 15.3434V21.9526C3.15716 23.3714 4.8073 24.5228 6.8405 24.5228H16.312C17.2889 24.5228 18.2257 24.252 18.9165 23.77C19.6072 23.288 19.9953 22.6343 19.9953 21.9526V15.3434C19.9953 14.6618 19.6072 14.008 18.9165 13.526C18.2257 13.044 17.2889 12.7732 16.312 12.7732H6.8405C5.86362 12.7732 4.92675 13.044 4.23599 13.526C3.54522 14.008 3.15716 14.6618 3.15716 15.3434Z" fill="#A4A4A4"/>
</svg>
