<svg width="29" height="26" viewBox="0 0 29 26" fill="none" xmlns="http://www.w3.org/2000/svg">
<path d="M14.4253 7.39972C10.8411 7.39972 7.93213 9.901 7.93213 12.9829C7.93213 16.0649 10.8411 18.5661 14.4253 18.5661C18.0096 18.5661 20.9186 16.0649 20.9186 12.9829C20.9186 9.901 18.0096 7.39972 14.4253 7.39972ZM1.43891 14.0996H4.0362C4.75045 14.0996 5.33484 13.5971 5.33484 12.9829C5.33484 12.3688 4.75045 11.8663 4.0362 11.8663H1.43891C0.724659 11.8663 0.14027 12.3688 0.14027 12.9829C0.14027 13.5971 0.724659 14.0996 1.43891 14.0996ZM24.8145 14.0996H27.4118C28.126 14.0996 28.7104 13.5971 28.7104 12.9829C28.7104 12.3688 28.126 11.8663 27.4118 11.8663H24.8145C24.1002 11.8663 23.5158 12.3688 23.5158 12.9829C23.5158 13.5971 24.1002 14.0996 24.8145 14.0996ZM13.1267 1.8165V4.04979C13.1267 4.66394 13.7111 5.16643 14.4253 5.16643C15.1396 5.16643 15.724 4.66394 15.724 4.04979V1.8165C15.724 1.20235 15.1396 0.699858 14.4253 0.699858C13.7111 0.699858 13.1267 1.20235 13.1267 1.8165ZM13.1267 21.9161V24.1494C13.1267 24.7635 13.7111 25.266 14.4253 25.266C15.1396 25.266 15.724 24.7635 15.724 24.1494V21.9161C15.724 21.3019 15.1396 20.7994 14.4253 20.7994C13.7111 20.7994 13.1267 21.3019 13.1267 21.9161ZM6.6205 4.69744C6.50035 4.59392 6.35765 4.5118 6.20055 4.45576C6.04345 4.39973 5.87503 4.37088 5.70495 4.37088C5.53487 4.37088 5.36646 4.39973 5.20936 4.45576C5.05226 4.5118 4.90955 4.59392 4.78941 4.69744C4.66902 4.80074 4.57351 4.92345 4.50834 5.05853C4.44317 5.19362 4.40963 5.33843 4.40963 5.48467C4.40963 5.63092 4.44317 5.77573 4.50834 5.91081C4.57351 6.0459 4.66902 6.1686 4.78941 6.27191L6.16597 7.45555C6.67244 7.89104 7.50357 7.89104 7.99706 7.45555C8.49054 7.02006 8.50353 6.30541 7.99706 5.88108L6.6205 4.69744ZM22.6847 18.5103C22.5646 18.4068 22.4219 18.3247 22.2648 18.2686C22.1077 18.2126 21.9392 18.1838 21.7692 18.1838C21.5991 18.1838 21.4307 18.2126 21.2736 18.2686C21.1165 18.3247 20.9738 18.4068 20.8536 18.5103C20.7332 18.6136 20.6377 18.7363 20.5726 18.8714C20.5074 19.0065 20.4738 19.1513 20.4738 19.2975C20.4738 19.4438 20.5074 19.5886 20.5726 19.7237C20.6377 19.8588 20.7332 19.9815 20.8536 20.0848L22.2302 21.2684C22.7367 21.7039 23.5678 21.7039 24.0613 21.2684C24.1817 21.1651 24.2772 21.0424 24.3423 20.9073C24.4075 20.7722 24.441 20.6274 24.441 20.4812C24.441 20.3349 24.4075 20.1901 24.3423 20.055C24.2772 19.92 24.1817 19.7973 24.0613 19.694L22.6847 18.5103ZM24.0613 6.27191C24.1817 6.1686 24.2772 6.0459 24.3423 5.91081C24.4075 5.77573 24.441 5.63092 24.441 5.48467C24.441 5.33843 24.4075 5.19362 24.3423 5.05853C24.2772 4.92345 24.1817 4.80074 24.0613 4.69744C23.9411 4.59392 23.7984 4.5118 23.6413 4.45576C23.4842 4.39973 23.3158 4.37088 23.1457 4.37088C22.9756 4.37088 22.8072 4.39973 22.6501 4.45576C22.493 4.5118 22.3503 4.59392 22.2302 4.69744L20.8536 5.88108C20.3471 6.31657 20.3471 7.03122 20.8536 7.45555C21.3601 7.87987 22.1912 7.89104 22.6847 7.45555L24.0613 6.27191ZM7.99706 20.0848C8.11745 19.9815 8.21296 19.8588 8.27813 19.7237C8.34329 19.5886 8.37684 19.4438 8.37684 19.2975C8.37684 19.1513 8.34329 19.0065 8.27813 18.8714C8.21296 18.7363 8.11745 18.6136 7.99706 18.5103C7.87692 18.4068 7.73421 18.3247 7.57711 18.2686C7.42001 18.2126 7.2516 18.1838 7.08151 18.1838C6.91143 18.1838 6.74302 18.2126 6.58592 18.2686C6.42882 18.3247 6.28611 18.4068 6.16597 18.5103L4.78941 19.694C4.28294 20.1294 4.28294 20.8441 4.78941 21.2684C5.29588 21.6927 6.12701 21.7039 6.6205 21.2684L7.99706 20.0848Z" fill="#9E9A9A"/>
</svg>
